HIERARCHY
ROOT Model
{
	OFFSET 0.000000 0.000000 0.000000 
	CHANNELS 6 Xposition Yposition Zposition Zrotation Xrotation Yrotation
	JOINT Model1
	{
		OFFSET 0.000000 -0.563698 0.748460 
		CHANNELS 3 Zrotation Xrotation Yrotation
		JOINT Model2
		{
			OFFSET 3.027750 0.000000 0.000000 
			CHANNELS 3 Zrotation Xrotation Yrotation
			JOINT Model3
			{
				OFFSET 2.887550 0.000000 0.000000 
				CHANNELS 3 Zrotation Xrotation Yrotation
				JOINT Model4
				{
					OFFSET 2.945250 0.000000 0.000000 
					CHANNELS 3 Zrotation Xrotation Yrotation
					JOINT Model5
					{
						OFFSET 5.015025 0.000000 0.000000 
						CHANNELS 3 Zrotation Xrotation Yrotation
						JOINT Model6
						{
							OFFSET 2.799050 0.000000 0.000000 
							CHANNELS 3 Zrotation Xrotation Yrotation
							End Site
							{
								OFFSET 0.000000 0.000000 0.000000 
							}
						}
					}
					JOINT Model7
					{
						OFFSET 2.705575 0.104383 0.877785 
						CHANNELS 3 Zrotation Xrotation Yrotation
						JOINT Model8
						{
							OFFSET -1.519858 0.000000 0.000000 
							CHANNELS 3 Zrotation Xrotation Yrotation
							JOINT Model9
							{
								OFFSET -0.069353 2.597500 -0.012810 
								CHANNELS 3 Zrotation Xrotation Yrotation
								JOINT Model10
								{
									OFFSET -0.859775 -0.070511 0.466695 
									CHANNELS 3 Zrotation Xrotation Yrotation
									JOINT Model11
									{
										OFFSET 3.256725 0.000000 0.000000 
										CHANNELS 3 Zrotation Xrotation Yrotation
										JOINT Model12
										{
											OFFSET 2.721650 0.000000 0.000000 
											CHANNELS 3 Zrotation Xrotation Yrotation
											JOINT Model13
											{
												OFFSET 4.182925 0.000000 0.000000 
												CHANNELS 3 Zrotation Xrotation Yrotation
												JOINT Model14
												{
													OFFSET 2.957300 0.000000 0.000000 
													CHANNELS 3 Zrotation Xrotation Yrotation
													JOINT Model15
													{
														OFFSET 1.206877 -0.933915 -0.209129 
														CHANNELS 3 Zrotation Xrotation Yrotation
														JOINT Model16
														{
															OFFSET 0.938277 -0.014572 -0.004662 
															CHANNELS 3 Zrotation Xrotation Yrotation
															JOINT Model17
															{
																OFFSET 0.721722 0.004808 0.003700 
																CHANNELS 3 Zrotation Xrotation Yrotation
																End Site
																{
																	OFFSET 0.000000 0.000000 0.000000 
																}
															}
														}
													}
													JOINT Model18
													{
														OFFSET 2.430492 -0.766145 0.059692 
														CHANNELS 3 Zrotation Xrotation Yrotation
														JOINT Model19
														{
															OFFSET 1.152828 0.000000 0.000000 
															CHANNELS 3 Zrotation Xrotation Yrotation
															JOINT Model20
															{
																OFFSET 0.724225 -0.000002 0.000000 
																CHANNELS 3 Zrotation Xrotation Yrotation
																End Site
																{
																	OFFSET 0.000000 0.000000 0.000000 
																}
															}
														}
													}
													JOINT Model21
													{
														OFFSET 2.386077 -0.186266 0.147236 
														CHANNELS 3 Zrotation Xrotation Yrotation
														JOINT Model22
														{
															OFFSET 1.334945 0.000000 0.000000 
															CHANNELS 3 Zrotation Xrotation Yrotation
															JOINT Model23
															{
																OFFSET 0.759048 0.000002 0.000000 
																CHANNELS 3 Zrotation Xrotation Yrotation
																End Site
																{
																	OFFSET 0.000000 0.000000 0.000000 
																}
															}
														}
													}
													JOINT Model24
													{
														OFFSET 2.369395 0.378215 0.121281 
														CHANNELS 3 Zrotation Xrotation Yrotation
														JOINT Model25
														{
															OFFSET 1.240340 0.000002 0.000000 
															CHANNELS 3 Zrotation Xrotation Yrotation
															JOINT Model26
															{
																OFFSET 0.629912 0.000000 0.000000 
																CHANNELS 3 Zrotation Xrotation Yrotation
																End Site
																{
																	OFFSET 0.000000 0.000000 0.000000 
																}
															}
														}
													}
													JOINT Model27
													{
														OFFSET 2.335618 0.835293 -0.059818 
														CHANNELS 3 Zrotation Xrotation Yrotation
														JOINT Model28
														{
															OFFSET 0.820647 0.000006 0.000000 
															CHANNELS 3 Zrotation Xrotation Yrotation
															JOINT Model29
															{
																OFFSET 0.532300 0.000000 0.000000 
																CHANNELS 3 Zrotation Xrotation Yrotation
																End Site
																{
																	OFFSET 0.000000 0.000000 0.000000 
																}
															}
														}
													}
												}
											}
										}
									}
								}
							}
						}
					}
					JOINT Model30
					{
						OFFSET 2.705575 0.104475 -0.877765 
						CHANNELS 3 Zrotation Xrotation Yrotation
						JOINT Model31
						{
							OFFSET 1.519858 0.000000 0.000000 
							CHANNELS 3 Zrotation Xrotation Yrotation
							JOINT Model32
							{
								OFFSET 0.069353 -2.597500 0.012810 
								CHANNELS 3 Zrotation Xrotation Yrotation
								JOINT Model33
								{
									OFFSET 0.859775 0.070511 -0.466695 
									CHANNELS 3 Zrotation Xrotation Yrotation
									JOINT Model34
									{
										OFFSET -3.256725 0.000000 0.000000 
										CHANNELS 3 Zrotation Xrotation Yrotation
										JOINT Model35
										{
											OFFSET -2.721650 0.000000 0.000000 
											CHANNELS 3 Zrotation Xrotation Yrotation
											JOINT Model36
											{
												OFFSET -4.182925 0.000000 0.000000 
												CHANNELS 3 Zrotation Xrotation Yrotation
												JOINT Model37
												{
													OFFSET -2.957300 0.000000 0.000000 
													CHANNELS 3 Zrotation Xrotation Yrotation
													JOINT Model38
													{
														OFFSET -1.206877 0.933915 0.209129 
														CHANNELS 3 Zrotation Xrotation Yrotation
														JOINT Model39
														{
															OFFSET -0.938277 0.014572 0.004662 
															CHANNELS 3 Zrotation Xrotation Yrotation
															JOINT Model40
															{
																OFFSET -0.721720 -0.004808 -0.003700 
																CHANNELS 3 Zrotation Xrotation Yrotation
																End Site
																{
																	OFFSET 0.000000 0.000000 0.000000 
																}
															}
														}
													}
													JOINT Model41
													{
														OFFSET -2.430492 0.766147 -0.059692 
														CHANNELS 3 Zrotation Xrotation Yrotation
														JOINT Model42
														{
															OFFSET -1.152825 0.000000 0.000000 
															CHANNELS 3 Zrotation Xrotation Yrotation
															JOINT Model43
															{
																OFFSET -0.724225 0.000000 0.000000 
																CHANNELS 3 Zrotation Xrotation Yrotation
																End Site
																{
																	OFFSET 0.000000 0.000000 0.000000 
																}
															}
														}
													}
													JOINT Model44
													{
														OFFSET -2.386075 0.186266 -0.147236 
														CHANNELS 3 Zrotation Xrotation Yrotation
														JOINT Model45
														{
															OFFSET -1.334945 0.000000 0.000000 
															CHANNELS 3 Zrotation Xrotation Yrotation
															JOINT Model46
															{
																OFFSET -0.759048 -0.000004 0.000000 
																CHANNELS 3 Zrotation Xrotation Yrotation
																End Site
																{
																	OFFSET 0.000000 0.000000 0.000000 
																}
															}
														}
													}
													JOINT Model47
													{
														OFFSET -2.369397 -0.378215 -0.121281 
														CHANNELS 3 Zrotation Xrotation Yrotation
														JOINT Model48
														{
															OFFSET -1.240340 -0.000004 0.000000 
															CHANNELS 3 Zrotation Xrotation Yrotation
															JOINT Model49
															{
																OFFSET -0.629915 0.000000 0.000000 
																CHANNELS 3 Zrotation Xrotation Yrotation
																End Site
																{
																	OFFSET 0.000000 0.000000 0.000000 
																}
															}
														}
													}
													JOINT Model50
													{
														OFFSET -2.335615 -0.835295 0.059818 
														CHANNELS 3 Zrotation Xrotation Yrotation
														JOINT Model51
														{
															OFFSET -0.820650 -0.000006 0.000000 
															CHANNELS 3 Zrotation Xrotation Yrotation
															JOINT Model52
															{
																OFFSET -0.532300 0.000000 0.000000 
																CHANNELS 3 Zrotation Xrotation Yrotation
																End Site
																{
																	OFFSET 0.000000 0.000000 0.000000 
																}
															}
														}
													}
												}
											}
										}
									}
								}
							}
						}
					}
				}
			}
		}
	}
	JOINT Model53
	{
		OFFSET 1.095065 -0.536580 -0.278790 
		CHANNELS 3 Zrotation Xrotation Yrotation
		JOINT Model54
		{
			OFFSET 0.000000 0.000000 1.237500 
			CHANNELS 3 Zrotation Xrotation Yrotation
			JOINT Model55
			{
				OFFSET 4.641050 0.000000 0.000000 
				CHANNELS 3 Zrotation Xrotation Yrotation
				JOINT Model56
				{
					OFFSET 5.322100 0.000000 0.000004 
					CHANNELS 3 Zrotation Xrotation Yrotation
					JOINT Model57
					{
						OFFSET 7.565250 0.000000 0.000000 
						CHANNELS 3 Zrotation Xrotation Yrotation
						JOINT Model58
						{
							OFFSET 2.931475 0.000000 0.000000 
							CHANNELS 3 Zrotation Xrotation Yrotation
							JOINT Model59
							{
								OFFSET 2.670500 0.000000 0.000000 
								CHANNELS 3 Zrotation Xrotation Yrotation
								End Site
								{
									OFFSET 0.000000 0.000000 0.000000 
								}
							}
						}
					}
				}
			}
		}
	}
	JOINT Model60
	{
		OFFSET -1.095065 -0.536580 -0.278790 
		CHANNELS 3 Zrotation Xrotation Yrotation
		JOINT Model61
		{
			OFFSET 0.000000 0.000000 -1.237500 
			CHANNELS 3 Zrotation Xrotation Yrotation
			JOINT Model62
			{
				OFFSET -4.641050 0.000000 0.000000 
				CHANNELS 3 Zrotation Xrotation Yrotation
				JOINT Model63
				{
					OFFSET -5.322100 0.000000 -0.000004 
					CHANNELS 3 Zrotation Xrotation Yrotation
					JOINT Model64
					{
						OFFSET -7.565250 0.000000 0.000000 
						CHANNELS 3 Zrotation Xrotation Yrotation
						JOINT Model65
						{
							OFFSET -2.931475 0.000000 0.000000 
							CHANNELS 3 Zrotation Xrotation Yrotation
							JOINT Model66
							{
								OFFSET -2.670500 0.000000 0.000000 
								CHANNELS 3 Zrotation Xrotation Yrotation
								End Site
								{
									OFFSET 0.000000 0.000000 0.000000 
								}
							}
						}
					}
				}
			}
		}
	}
}
MOTION
Frames: 4
Frame Time: 0.033333
-6.231600 20.299000 3.708233 74.222900 -69.365799 82.257599 -180.000000 0.000000 -90.000000 3.719570 -1.986460 -0.760159 7.419260 -4.018370 -1.390950 7.419260 -4.017940 -1.391010 55.208401 7.561940 -0.181388 -39.000900 8.256640 -0.313034 120.092003 75.534302 58.493900 -13.965700 8.303270 6.476670 -167.276993 84.499901 48.810902 145.585999 4.712160 1.117970 -0.000001 27.222700 0.000035 -35.186001 -3.480350 0.351804 -0.000000 -5.773250 -0.000001 -14.518000 3.171480 -24.524599 -72.064796 39.038502 39.339699 33.363800 2.103620 14.835000 0.588947 0.308273 6.352870 -99.640900 81.413002 100.349998 -0.018141 0.000028 -0.117315 -0.124139 0.002411 -0.799296 -79.838203 79.577301 80.537399 -0.000226 -0.000221 0.000022 -0.000956 0.000123 -0.000027 -66.741600 80.405800 67.217102 -0.000437 0.000016 -0.000027 -0.000137 -0.000109 -0.000055 -6.421590 81.215797 8.017790 -0.000219 0.000017 0.000212 0.000902 -0.000185 -0.000219 -59.928200 75.537300 58.514702 -17.548599 9.749820 8.141930 -167.276993 84.499901 48.810902 173.572998 -1.076010 21.345800 -0.000002 14.184900 0.000033 -75.361397 11.904100 0.602437 -0.000007 17.258400 0.000003 -10.609300 1.249350 -13.385100 -72.064796 39.038502 39.339699 33.363800 2.103610 14.835000 0.588946 0.308273 6.352870 -99.640900 81.413002 100.349998 -0.018141 0.000030 -0.117315 -0.124139 0.002411 -0.799296 -79.838203 79.577301 80.537399 -0.000261 -0.000219 0.000024 -0.000956 0.000123 -0.000027 -66.741600 80.405800 67.217102 -0.000437 0.000015 -0.000027 -0.000137 -0.000109 -0.000055 -6.421590 81.215797 8.017790 -0.000219 0.000020 0.000212 0.000902 -0.000191 -0.000219 0.000811 0.566610 89.910004 -52.576000 0.431571 -6.291170 0.000000 1.418970 -0.000000 57.966900 -3.779050 -0.007257 -0.000000 -5.771200 -0.000000 -68.809601 9.089270 -5.791620 -35.494701 0.000001 0.000000 -180.000000 -0.566579 -90.089996 -45.518398 -18.040701 -19.232100 -0.000009 -23.273300 -0.000002 58.166599 14.403300 -0.006951 0.000001 21.501900 0.000001 -57.691502 40.707802 -28.521799 -37.223202 -4.856410 0.113251 
-6.235674 20.386749 3.742733 74.189705 -68.608398 82.401497 -180.000000 0.000000 -90.000000 3.736210 -2.104330 -0.790095 7.450720 -4.255980 -1.442670 7.450710 -4.255540 -1.442720 53.323200 8.231590 1.176170 -37.486801 8.793370 -0.829080 120.092003 75.534302 58.493900 -14.391500 7.977450 6.451900 -167.276993 84.499901 48.810902 143.136002 3.032200 2.315790 0.000001 24.551300 0.000035 -37.554199 -1.237140 0.371320 -0.000000 -2.431680 -0.000001 -14.835500 3.559830 -26.850201 -72.064796 39.038502 39.339699 33.363800 2.103620 14.835000 0.588947 0.308273 6.352870 -99.640900 81.413002 100.349998 -0.018141 0.000028 -0.117315 -0.124139 0.002411 -0.799296 -79.838203 79.577301 80.537399 -0.000226 -0.000221 0.000022 -0.000956 0.000123 -0.000027 -66.741600 80.405800 67.217102 -0.000437 0.000016 -0.000027 -0.000137 -0.000109 -0.000055 -6.421590 81.215797 8.017790 -0.000219 0.000017 0.000212 0.000902 -0.000185 -0.000219 -59.928200 75.537300 58.514702 -18.101200 9.967310 8.407880 -167.276993 84.499901 48.810902 171.723007 -2.579680 21.590599 -0.000001 12.130100 0.000033 -67.892998 12.512500 0.576723 -0.000007 18.124500 0.000003 -10.920400 1.146220 -11.924400 -72.064796 39.038502 39.339699 33.363800 2.103610 14.835000 0.588946 0.308273 6.352870 -99.640900 81.413002 100.349998 -0.018141 0.000030 -0.117315 -0.124139 0.002411 -0.799296 -79.838203 79.577301 80.537399 -0.000261 -0.000219 0.000024 -0.000956 0.000123 -0.000027 -66.741600 80.405800 67.217102 -0.000437 0.000015 -0.000027 -0.000137 -0.000109 -0.000055 -6.421590 81.215797 8.017790 -0.000219 0.000020 0.000212 0.000902 -0.000191 -0.000219 0.000811 0.566610 89.910004 -52.818298 1.198920 -5.412020 0.000000 2.461420 -0.000000 57.540901 -3.918740 -0.007296 -0.000000 -5.980210 -0.000000 -66.734001 7.339860 -4.948550 -35.494701 0.000001 -0.000000 -180.000000 -0.566579 -90.089996 -44.951500 -18.506399 -19.238400 -0.000009 -23.839300 -0.000002 57.113899 14.515800 -0.006876 0.000001 21.671900 0.000001 -57.420601 40.667599 -28.621300 -37.215302 -4.833580 0.113454 
-6.240799 20.551998 3.769726 74.497696 -67.135803 82.781197 -180.000000 0.000000 -90.000000 3.714870 -2.174890 -0.854678 7.405020 -4.400830 -1.568160 7.405010 -4.400400 -1.568220 51.353802 8.815970 3.269340 -36.174301 9.330010 -1.931300 120.092003 75.534302 58.493900 -13.557700 8.886720 6.616580 -167.276993 84.499901 48.810902 139.097000 1.364960 5.503690 0.000002 22.117800 0.000034 -37.448101 1.164260 0.464129 -0.000000 1.170300 -0.000001 -15.417700 4.198190 -30.253099 -72.064796 39.038502 39.339699 33.363800 2.103620 14.835000 0.588947 0.308273 6.352870 -99.640900 81.413002 100.349998 -0.018141 0.000028 -0.117315 -0.124139 0.002411 -0.799296 -79.838203 79.577301 80.537399 -0.000226 -0.000221 0.000022 -0.000956 0.000123 -0.000027 -66.741600 80.405800 67.217102 -0.000437 0.000016 -0.000027 -0.000137 -0.000109 -0.000055 -6.421590 81.215797 8.017790 -0.000219 0.000017 0.000212 0.000902 -0.000185 -0.000219 -59.928200 75.537300 58.514702 -18.789101 9.989960 8.623190 -167.276993 84.499901 48.810902 168.792999 -4.769230 22.051800 0.000001 9.172330 0.000033 -54.965000 12.101900 0.507724 -0.000007 17.488701 0.000003 -11.292900 0.730559 -7.413360 -72.064796 39.038502 39.339699 33.363800 2.103610 14.835000 0.588946 0.308273 6.352870 -99.640900 81.413002 100.349998 -0.018141 0.000030 -0.117315 -0.124139 0.002411 -0.799296 -79.838203 79.577301 80.537399 -0.000261 -0.000219 0.000024 -0.000956 0.000123 -0.000027 -66.741600 80.405800 67.217102 -0.000437 0.000015 -0.000027 -0.000137 -0.000109 -0.000055 -6.421590 81.215797 8.017790 -0.000219 0.000020 0.000212 0.000902 -0.000191 -0.000219 0.000811 0.566610 89.910004 -53.209801 1.588780 -4.852880 0.000000 2.963510 -0.000000 56.860901 -3.346290 -0.007332 -0.000000 -5.120680 -0.000000 -62.890598 6.344130 -4.550220 -35.494701 0.000001 -0.000001 -180.000000 -0.566579 -90.089996 -43.693802 -19.377001 -19.377001 -0.000009 -24.820101 -0.000002 55.125702 14.733900 -0.006707 0.000001 22.001600 0.000001 -56.654099 40.608200 -28.943899 -37.300201 -5.067240 0.111099 
-6.288500 20.777750 3.777981 75.065292 -65.484001 83.217293 -180.000000 0.000000 -90.000000 3.678080 -2.256880 -0.949005 7.326960 -4.570210 -1.753110 7.326960 -4.569780 -1.753170 49.847801 9.443640 4.147530 -36.071400 10.036900 -2.456530 120.092003 75.534302 58.493900 -11.112600 10.684200 6.677800 -167.276993 84.499901 48.810902 135.009995 0.003993 9.812930 0.000003 20.655800 0.000034 -29.906000 2.703150 -0.308318 -0.000000 3.567350 -0.000001 -16.273001 4.305700 -29.545401 -72.064796 39.038502 39.339699 33.363800 2.103620 14.835000 0.588947 0.308273 6.352870 -99.640900 81.413002 100.349998 -0.018141 0.000028 -0.117315 -0.124139 0.002411 -0.799296 -79.838203 79.577301 80.537399 -0.000226 -0.000221 0.000022 -0.000956 0.000123 -0.000027 -66.741600 80.405800 67.217102 -0.000437 0.000016 -0.000027 -0.000137 -0.000109 -0.000055 -6.421590 81.215797 8.017790 -0.000219 0.000017 0.000212 0.000902 -0.000185 -0.000219 -59.928200 75.537300 58.514702 -19.430000 9.691980 8.669280 -167.276993 84.499901 48.810902 167.985001 -5.610190 22.688499 0.000002 7.848760 0.000033 -47.975800 11.660600 0.462644 -0.000007 16.837900 0.000003 -12.251600 0.493302 -4.579150 -72.064796 39.038502 39.339699 33.363800 2.103610 14.835000 0.588946 0.308273 6.352870 -99.640900 81.413002 100.349998 -0.018141 0.000030 -0.117315 -0.124139 0.002411 -0.799296 -79.838203 79.577301 80.537399 -0.000261 -0.000219 0.000024 -0.000956 0.000123 -0.000027 -66.741600 80.405800 67.217102 -0.000437 0.000015 -0.000027 -0.000137 -0.000109 -0.000055 -6.421590 81.215797 8.017790 -0.000219 0.000020 0.000212 0.000902 -0.000191 -0.000219 0.000811 0.566610 89.910004 -53.588299 1.261160 -5.066870 0.000000 2.467870 -0.000000 56.071098 -2.066420 -0.007364 -0.000000 -3.199870 -0.000000 -59.082100 6.404360 -4.742480 -35.494701 0.000001 -0.000001 -180.000000 -0.566579 -90.089996 -42.059700 -20.293301 -19.288300 -0.000009 -25.832701 -0.000002 52.407902 14.924000 -0.006472 0.000001 22.290501 0.000001 -55.402199 40.215000 -29.247400 -37.425301 -5.412180 0.106811 
